<svg width="30" height="30" viewBox="0 0 30 30" fill="none" xmlns="http://www.w3.org/2000/svg">
<circle cx="15" cy="15" r="15" fill="white"/>
<path d="M8 8H16C18.2091 8 20 9.79086 20 12V16H12C9.79086 16 8 14.2091 8 12V8Z" fill="#3498DB"/>
<path d="M8 16H16C18.2091 16 20 17.7909 20 20V24H12C9.79086 24 8 22.2091 8 20V16Z" fill="#FF5722"/>
<path d="M16 8H24V12C24 14.2091 22.2091 16 20 16H16V8Z" fill="#34D399"/>
<path d="M16 16H20C22.2091 16 24 17.7909 24 20V24H16V16Z" fill="#FFD700"/>
<path d="M8 8H16C18.2091 8 20 9.79086 20 12C20 14.2091 18.2091 16 16 16H8V8Z" fill="#E74C3C"/>
<path d="M8 8V16H16C18.2091 16 20 14.2091 20 12C20 9.79086 18.2091 8 16 8H8Z" fill="#3498DB"/>
<path d="M8 16V24H16C18.2091 24 20 22.2091 20 20C20 17.7909 18.2091 16 16 16H8Z" fill="#2ECC71"/>
</svg>